<svg width="60" height="99" viewBox="0 0 60 99" fill="none" xmlns="http://www.w3.org/2000/svg">
<path d="M59.6308 23.0626V4.70322C59.6308 2.11532 57.5312 0.45522 55.041 0.94352L29.9433 6.41222C26.8183 7.09582 25.1093 8.80482 25.1093 11.5392L25.207 65.836C25.4511 68.2286 24.3281 69.7911 22.1796 70.2306L14.4159 71.8419C4.65035 73.8927 0.0605469 78.8732 0.0605469 86.2462C0.0605469 93.7169 5.82225 98.9415 13.9277 98.9415C21.1054 98.9415 31.8476 93.6681 31.8476 79.4591V34.7813C31.8476 32.1935 32.3359 31.6563 34.6308 31.1681L56.9452 26.2853C58.6054 25.9435 59.6308 24.6739 59.6308 23.0626Z" fill="black"/>
</svg>
