<svg width="49" height="79" viewBox="0 0 49 79" fill="none" xmlns="http://www.w3.org/2000/svg">
<path d="M48.7012 18.3848V3.78525C48.7012 1.68555 46.9922 0.269547 44.8926 0.709047L24.7754 5.10355C22.1387 5.68955 20.7227 7.05665 20.7227 9.35165V52.3203C20.9668 54.0781 20.1367 55.2012 18.5743 55.4941L12.4707 56.7637C4.65817 58.4238 0.996094 62.4277 0.996094 68.3848C0.996094 74.3907 5.63477 78.5899 12.1289 78.5899C17.8418 78.5899 26.4356 74.3418 26.4356 63.0137V27.6621C26.4356 25.709 26.7774 25.416 28.4864 25.0742L46.5039 21.0703C47.8223 20.7773 48.7012 19.752 48.7012 18.3848Z" fill="black"/>
</svg>
