<svg width="76" height="126" viewBox="0 0 76 126" fill="none" xmlns="http://www.w3.org/2000/svg">
<path d="M75.373 28.9337V5.64268C75.373 2.51768 72.8827 0.466877 69.8066 1.10168L38.2636 7.98637C34.5527 8.76767 32.5507 10.8185 32.5507 14.0899L32.6972 83.5235C32.9902 86.795 31.3788 88.9923 28.498 89.5782L18.4882 91.6778C6.13472 94.2169 0.324219 100.418 0.324219 109.793C0.324219 119.168 7.50192 125.711 17.7558 125.711C26.8867 125.711 40.3632 119.07 40.3632 101.053V44.0216C40.3632 40.506 41.0956 39.6759 44.3183 38.9435L72.1992 32.8399C74.1523 32.4005 75.373 30.9356 75.373 28.9337Z" fill="black"/>
</svg>
